<?xml version="1.0" encoding="UTF-8"?>
<svg width="1200pt" height="1200pt" version="1.1" viewBox="0 0 1200 1200" xmlns="http://www.w3.org/2000/svg">
 <path transform="scale(12)" d="m59.607 23.775 0.31803 31.793c4.9899 0.84994 7.432 0.82194 11.57-1.805 2.125-1.222 3.584-3.2119 6.264-3.0781 15.604 1.166 17.305 12.101 9.7679 10.401-7.5371-1.6979-10.937-0.44987-16.666 3.821-9.3411 7.6452-20.383 14.969-35.351 15.182-14.968 0.21289-19.398-8.334-21.974-19.002l-5.2012-22.713c-1.249-4.1969 3.6729-4.9648 5.8118-3.082 3.29 2.8389 6.9261 6.529 13.269 9.7399 9.7939 4.431 10.884-5.9521 11.48-12.998 0.15592-1.8369 0.25391-4.224 0.64811-9.1589 0.26595-3.3258 4.777-3.1868 5.2008-0.10905l0.89486 6.262 0.96094-6.3669c0.58496-3.557 4.7259-3.543 5.0449 0.001953l0.77702 6.9671s1.154-4.2829 1.7679-6.916c0.69466-3.7393 5.1536-4.0882 5.4167 1.0609z" fill="none" stroke="#000" stroke-linejoin="round" stroke-miterlimit="10" stroke-width="2"/>
</svg>
